<svg version="1.1" x="0px" y="0px" width="185.2877213249" height="185.28622152345" xmlns="http://www.w3.org/2000/svg" xmlns:xlink="http://www.w3.org/1999/xlink" xmlns:a="http://ns.adobe.com/AdobeSVGViewerExtensions/3.0/" xml:space="preserve"><g transform="translate(0 0)"><g transform="translate(0 0) scale(1.5357966888592 1.5357966888592) rotate(0 60.322998046875 60.322509765625)"><path d="M71.097 4v37.289H4V4h67.097m4-4H0v45.289h75.097V0zM41.29 54.322v62.323H4V54.322h37.29m4-4H0v70.323h45.29V50.322zM116.646 4v37.289H84.13V4h32.516m4-4H80.13v45.289h40.516V0zM50.323 50.322v70.323h70.322V50.322H50.323zm19.315 31.322c-2.088 2.648-3.896 5.504-5.506 8.465-1.621 2.959-3.005 6.041-4.227 9.186-1.188 3.156-2.216 6.373-2.994 9.65a66.18 66.18 0 00-1.406 7.701h-1.182v-18.7c1.295-3.176 2.698-6.293 4.297-9.297.525-1.045 1.129-2.043 1.692-3.061.621-.982 1.196-1.996 1.868-2.938 1.287-1.922 2.68-3.766 4.255-5.395 1.565-1.623 3.312-3.076 5.208-3.971.465-.266.961-.359 1.438-.533.495-.15 1.055-.244 1.595-.332 1.078-.162 2.255-.277 3.283-.26 2.215.025 4.384.385 6.479 1.121 2.104.717 4.07 1.764 6.076 2.965 2.081 1.188 4.234 2.328 6.5 3.25 2.256.928 4.658 1.635 6.973 2.129 2.326.498 4.422 1.027 6.379 2.066a24.146 24.146 0 015.443 3.887c.288.268.561.553.836.836v8.207a19.241 19.241 0 00-3.102-2.924c-1.254-.943-2.751-1.674-4.186-2.182-1.428-.516-2.777-.926-4.09-1.428-2.637-.934-5.131-2.188-7.523-3.654a36.324 36.324 0 01-3.455-2.369c-1.111-.867-2.35-1.836-3.734-2.566-2.723-1.488-5.755-2.248-8.748-2.443-3.003-.172-5.971.191-8.804.928l.074.465c2.89-.145 5.762-.145 8.524.365 2.76.469 5.393 1.424 7.688 2.854 1.136.713 2.143 1.6 3.288 2.545a38.923 38.923 0 003.613 2.686 40.695 40.695 0 008.051 4.008c1.408.502 2.842.908 4.15 1.35a14.31 14.31 0 013.55 1.723c1.101.73 2.105 1.631 3.032 2.627a26.57 26.57 0 011.67 2.078v3.359c-.209-.314-.414-.633-.659-.928-.755-.791-1.565-1.535-2.615-2.018a5.446 5.446 0 00-1.666-.441l-1.528-.154a16.106 16.106 0 01-2.88-.59c-.474-.127-.948-.252-1.399-.436-.459-.166-.92-.326-1.354-.549-1.773-.803-3.367-1.947-4.89-3.246-1.526-1.297-3.021-2.717-4.651-4.02a34.76 34.76 0 00-5.227-3.492 35.978 35.978 0 00-5.787-2.482c-2.018-.621-4.146-1.141-6.475-.863-.582.09-1.174.236-1.758.516a4.14 4.14 0 00-.848.533 5.172 5.172 0 00-.676.672c-.816.957-1.209 2.195-1.396 3.217-.42 1.936-.995 3.883-1.582 5.822-1.162 3.887-2.457 7.754-3.783 11.609l-2.021 5.773-1.027 2.881-.287.799H56.06l2.498-7.213c1.12-3.127 2.254-6.234 3.5-9.297 1.21-3.076 2.528-6.107 3.877-9.131l4.195-9.059-.492-.301zm33.437 35.002c-.779-1.797-2.014-3.375-3.43-4.656a23.046 23.046 0 00-5.666-3.672c-2.036-.908-4.142-1.609-6.325-1.967l-.137.518c.995.402 1.981.826 2.929 1.32.963.459 1.889.982 2.792 1.527 1.79 1.113 3.487 2.354 4.88 3.85a18.31 18.31 0 012.371 3.08H82.372c-.064-.344-.131-.688-.186-1.027a18.471 18.471 0 01-.248-2.635c-.014-.869.037-1.73.191-2.6.143-.873.402-1.736.701-2.67-1.568 1.199-2.344 3.307-2.299 5.299a8.182 8.182 0 00.602 2.902c.1.25.213.492.334.73h-5.52c.138-2.105.338-4.223.702-6.289.362-2.242.851-4.479 1.698-6.498.426-1.002.943-1.945 1.567-2.727.33-.361.662-.725 1.048-.961.184-.137.387-.223.581-.322.188-.064.462-.18.509-.17.162-.025.768.102 1.254.246.518.146 1.055.332 1.588.518 1.069.381 2.143.793 3.214 1.215 2.151.822 4.3 1.686 6.442 2.553 2.123.855 4.365 1.668 6.234 2.689.46.256.84.535 1.229.9.385.373.757.764 1.096 1.188a12.476 12.476 0 011.68 2.813 16.08 16.08 0 01.993 3.195c.117.543.195 1.096.267 1.65h-2.974zm13.571 0h-9.648l-.002-.047a20.757 20.757 0 00-.146-1.777 17.033 17.033 0 00-.801-3.51 13.975 13.975 0 00-1.631-3.281c-.35-.512-.74-.994-1.152-1.463a7.882 7.882 0 00-1.477-1.27c-1.063-.703-2.134-1.184-3.195-1.693a147.57 147.57 0 00-3.191-1.438 327.015 327.015 0 00-6.452-2.664c-1.089-.42-2.183-.83-3.302-1.219-.563-.191-1.121-.383-1.721-.549-.302-.082-.602-.164-.944-.227-.335-.061-.71-.123-1.218-.061-.531.082-.783.238-1.139.371-.316.162-.643.33-.921.543-.591.398-1.043.908-1.473 1.416-.81 1.047-1.348 2.197-1.767 3.35-1.517 4.459-1.766 9.008-1.578 13.518h-9.636l.169-.42 1.135-2.846 2.236-5.705c1.471-3.814 2.912-7.641 4.232-11.529.645-1.953 1.248-3.916 1.73-5.963.197-.973.492-1.73 1.014-2.336.124-.15.27-.277.413-.4.136-.104.276-.191.452-.268.34-.156.748-.256 1.173-.326 1.747-.223 3.707.191 5.563.773a34.242 34.242 0 015.456 2.324 33.544 33.544 0 015.008 3.197c1.587 1.211 3.083 2.574 4.696 3.889 1.605 1.311 3.383 2.541 5.352 3.381a19.3 19.3 0 006.164 1.5c1.076.084 2.035.023 2.818.361.833.334 1.591.959 2.268 1.605.6.66 1.094 1.418 1.514 2.227v10.537zm0-31.524c-1.504-1.447-3.183-2.73-5.041-3.748-2.185-1.254-4.695-1.959-6.955-2.51-2.28-.557-4.416-1.186-6.514-2.076-2.097-.875-4.106-1.969-6.11-3.131-2.047-1.199-4.274-2.369-6.649-3.15-2.363-.796-4.91-1.232-7.41-1.179-1.33.023-2.504.184-3.75.404-.618.121-1.223.238-1.852.443-.627.232-1.292.412-1.852.745-2.35 1.182-4.192 2.924-5.801 4.764a37.313 37.313 0 00-4.188 5.926 59.111 59.111 0 00-3.225 6.404 80.324 80.324 0 00-2.977 8.254V81.229c1.613-2.203 3.399-4.264 5.365-6.119 1.492-1.375 3.094-2.615 4.746-3.768 1.68-1.119 3.432-2.091 5.282-2.991 3.623-1.783 7.481-3.113 11.358-3.232 1.928-.076 3.844.158 5.631.779.912.289 1.739.689 2.603 1.185l2.679 1.56c3.588 2.08 7.097 4.339 10.656 6.515 4.654 2.902 9.31 5.814 14.002 8.682v1.282zm0-2.629a371.992 371.992 0 00-12.711-9.293c-3.422-2.42-6.915-4.729-10.472-6.988-.885-.571-1.802-1.099-2.712-1.642-.939-.556-1.999-1.086-3.076-1.439-2.156-.773-4.458-1.084-6.703-1.007-4.508.208-8.729 1.722-12.533 3.702-1.875.99-3.752 2.111-5.508 3.373a38.052 38.052 0 00-4.875 4.251 39.702 39.702 0 00-3.732 4.531V71.44a366.837 366.837 0 0110.328-6.132 161.964 161.964 0 015.468-2.939c1.831-.948 3.681-1.854 5.556-2.646.928-.439 1.885-.722 2.824-1.092.47-.195.945-.273 1.414-.422.472-.123.936-.297 1.412-.382a21.223 21.223 0 012.902-.39c.49-.031.98-.051 1.471-.052l.73.011.821.044-.134-.007c2.248.221 4.401.894 6.451 1.929 2.059 1.013 4.001 2.458 6.244 3.712a29.787 29.787 0 007.07 2.933c2.48.671 4.908.972 7.086 1.662.916.291 1.807.665 2.678 1.087v13.737zm-1.886-17.145c-2.454-.918-4.915-1.248-7.132-1.948-2.234-.676-4.339-1.657-6.382-2.84-2.021-1.146-4.008-2.659-6.331-3.845a19.748 19.748 0 00-7.53-2.223l-.134-.006c.121.002.043.001.008-.003l-.111-.007-.216-.011-.423-.014-.834-.004a26.9 26.9 0 00-1.657.075 23.823 23.823 0 00-3.293.478 31.44 31.44 0 00-3.175.965c-.991.422-2.03.774-2.977 1.257-3.884 1.789-7.52 3.926-11.066 6.182-3.143 1.99-6.185 4.118-9.184 6.297V54.322h62.322v11.83a20.517 20.517 0 00-1.885-.804z" fill="#612d1b"></path></g></g></svg>